<svg xmlns="http://www.w3.org/2000/svg" xmlns:xlink="http://www.w3.org/1999/xlink" version="1.1" id="Layer_17" x="0px" y="0px" width="100px" height="100px" viewBox="0 0 100 100" enable-background="new 0 0 100 100" xml:space="preserve">
<g>
	<path d="M77.799,30.645c0.054-0.061,0.115-0.108,0.164-0.173c1.426-1.835,1.096-4.476-0.739-5.903L72.8,21.127   c-1.835-1.427-4.478-1.094-5.903,0.737c-0.009,0.011-0.014,0.024-0.023,0.036c-3.879-2.03-8.163-3.381-12.703-3.899   c0.008-0.081,0.035-0.16,0.035-0.244v-2.804h1.402c1.547,0,2.804-1.256,2.804-2.804c0-1.548-1.257-2.804-2.804-2.804H44.393   c-1.548,0-2.804,1.256-2.804,2.804c0,1.547,1.256,2.804,2.804,2.804h1.402v2.804c0,0.084,0.026,0.163,0.035,0.244   C27.666,20.07,13.552,35.486,13.552,54.205c0,20.13,16.319,36.448,36.448,36.448c20.13,0,36.448-16.318,36.448-36.448   C86.448,45.219,83.19,36.999,77.799,30.645z M50,82.418c-15.582,0-28.212-12.631-28.212-28.213   c0-15.582,12.63-28.212,28.212-28.212s28.212,12.63,28.212,28.212C78.212,69.787,65.582,82.418,50,82.418z"/>
	<path d="M50,33.178c-2.322,0-4.205,1.884-4.205,4.206v18.224c0,2.321,1.883,4.205,4.205,4.205s4.205-1.884,4.205-4.205V37.383   C54.205,35.062,52.322,33.178,50,33.178z"/>
</g>
</svg>