<?xml version="1.0" encoding="UTF-8" standalone="no"?>
<!-- Created with Inkscape (http://www.inkscape.org/) -->

<svg
   xmlns:dc="http://purl.org/dc/elements/1.1/"
   xmlns:cc="http://creativecommons.org/ns#"
   xmlns:rdf="http://www.w3.org/1999/02/22-rdf-syntax-ns#"
   xmlns:svg="http://www.w3.org/2000/svg"
   xmlns="http://www.w3.org/2000/svg"
   version="1.1"
   width="100"
   height="100"
   viewBox="0 0 100 100"
   id="Layer_17"
   xml:space="preserve"><metadata
     id="metadata3063"><rdf:RDF><cc:Work
         rdf:about=""><dc:format>image/svg+xml</dc:format><dc:type
           rdf:resource="http://purl.org/dc/dcmitype/StillImage" /><dc:title></dc:title></cc:Work></rdf:RDF></metadata><defs
     id="defs3061" /><g
     id="g3053"><path
       d="m 77.799,30.645 c 0.054,-0.061 0.115,-0.108 0.164,-0.173 1.426,-1.835 1.096,-4.476 -0.739,-5.903 L 72.8,21.127 c -1.835,-1.427 -4.478,-1.094 -5.903,0.737 -0.009,0.011 -0.014,0.024 -0.023,0.036 -3.879,-2.03 -8.163,-3.381 -12.703,-3.899 0.008,-0.081 0.035,-0.16 0.035,-0.244 v -2.804 h 1.402 c 1.547,0 2.804,-1.256 2.804,-2.804 0,-1.548 -1.257,-2.804 -2.804,-2.804 H 44.393 c -1.548,0 -2.804,1.256 -2.804,2.804 0,1.547 1.256,2.804 2.804,2.804 h 1.402 v 2.804 c 0,0.084 0.026,0.163 0.035,0.244 -18.164,2.069 -32.278,17.485 -32.278,36.204 0,20.13 16.319,36.448 36.448,36.448 20.13,0 36.448,-16.318 36.448,-36.448 0,-8.986 -3.258,-17.206 -8.649,-23.56 z M 50,82.418 c -15.582,0 -28.212,-12.631 -28.212,-28.213 0,-15.582 12.63,-28.212 28.212,-28.212 15.582,0 28.212,12.63 28.212,28.212 0,15.582 -12.63,28.213 -28.212,28.213 z"
       id="path3055" /><path
       d="M 67.350103,42.045518 C 65.989907,40.163617 63.359998,39.741058 61.47807,41.101217 L 46.707943,51.776305 c -1.881093,1.359607 -2.305049,3.989293 -0.944889,5.87122 1.360197,1.881901 3.990106,2.304462 5.871222,0.944888 L 66.405212,47.916737 c 1.881092,-1.359609 2.305049,-3.989293 0.944888,-5.87122 z"
       id="path3057" /><rect
       width="3.3942416"
       height="28.435379"
       ry="1.6409272"
       x="7.6979971"
       y="50.177395"
       transform="matrix(0.8171048,-0.57648916,0.57648916,0.8171048,0,0)"
       id="rect3065"
       style="color:#000000;fill:#000000;fill-opacity:1;fill-rule:nonzero;stroke:none;stroke-width:0.5;marker:none;visibility:visible;display:inline;overflow:visible;enable-background:accumulate" /></g></svg>